<?xml version="1.0" encoding="UTF-8" standalone="no"?>
<!DOCTYPE svg PUBLIC "-//W3C//DTD SVG 1.1//EN" "http://www.w3.org/Graphics/SVG/1.1/DTD/svg11.dtd">
<svg width="100%" height="100%" viewBox="0 0 121 121" version="1.1" xmlns="http://www.w3.org/2000/svg" xmlns:xlink="http://www.w3.org/1999/xlink" xml:space="preserve" xmlns:serif="http://www.serif.com/" style="fill-rule:evenodd;clip-rule:evenodd;stroke-miterlimit:2;">
    <g>
        <path d="M60.233,14.756C80.977,14.756 97.794,31.618 97.794,52.418C97.794,73.218 80.977,90.08 60.233,90.08C39.49,90.08 22.673,73.218 22.673,52.418C22.673,31.618 39.49,14.756 60.233,14.756Z" style="fill:rgb(254,91,32);"/>
        <path d="M64.374,21.29C82.75,21.29 97.647,36.597 97.647,55.479C97.647,74.361 82.75,89.669 64.374,89.669C45.998,89.669 31.101,74.361 31.101,55.479C31.101,36.597 45.998,21.29 64.374,21.29Z" style="fill:rgb(255,174,145);"/>
        <path d="M64.374,21.29C82.75,21.29 97.647,36.597 97.647,55.479C97.647,74.361 82.75,89.669 64.374,89.669C45.998,89.669 31.101,74.361 31.101,55.479C31.101,36.597 45.998,21.29 64.374,21.29Z" style="fill:none;stroke:rgb(254,91,32);stroke-width:1.5px;"/>
        <path d="M62.12,52.802C58.896,52.802 56.282,56.652 56.282,61.402C56.282,66.152 58.896,70.002 62.12,70.002C65.344,70.002 67.957,66.152 67.957,61.402C67.957,56.652 65.344,52.802 62.12,52.802Z"/>
        <path d="M62.12,52.802C58.896,52.802 56.282,56.652 56.282,61.402C56.282,66.152 58.896,70.002 62.12,70.002C65.344,70.002 67.957,66.152 67.957,61.402C67.957,56.652 65.344,52.802 62.12,52.802Z" style="fill:none;stroke:black;stroke-width:0.5px;"/>
        <path d="M85.72,52.802C82.496,52.802 79.883,56.652 79.883,61.402C79.883,66.152 82.496,70.002 85.72,70.002C88.944,70.002 91.558,66.152 91.558,61.402C91.558,56.652 88.944,52.802 85.72,52.802Z"/>
        <path d="M85.72,52.802C82.496,52.802 79.883,56.652 79.883,61.402C79.883,66.152 82.496,70.002 85.72,70.002C88.944,70.002 91.558,66.152 91.558,61.402C91.558,56.652 88.944,52.802 85.72,52.802Z" style="fill:none;stroke:black;stroke-width:0.5px;"/>
        <path d="M83.857,54.871C85.178,54.871 86.249,56.427 86.249,58.346C86.249,60.266 85.178,61.822 83.857,61.822C82.536,61.822 81.465,60.266 81.465,58.346C81.465,56.427 82.536,54.871 83.857,54.871Z" style="fill:white;"/>
        <path d="M57.415,26.077C60.728,24.866 64.55,26.992 65.951,30.827C67.353,34.661 65.803,38.751 62.489,39.962C59.176,41.173 55.354,39.046 53.953,35.212C52.552,31.377 54.101,27.288 57.415,26.077Z" style="fill:white;"/>
        <path d="M60.013,54.871C61.334,54.871 62.405,56.427 62.405,58.346C62.405,60.266 61.334,61.822 60.013,61.822C58.691,61.822 57.62,60.266 57.62,58.346C57.62,56.427 58.691,54.871 60.013,54.871Z" style="fill:white;"/>
        <path d="M31.506,75.161C31.486,72.771 25.396,73.66 17.77,64.738C15.461,62.037 14.127,64.134 12.524,65.902C10.922,67.669 7.069,72.16 4.403,77.114C1.737,82.068 -0.033,90.824 1.401,92.075C2.835,93.326 9.824,75.858 26.121,78.997C26.121,78.997 27.345,79.334 28.577,79.045C29.809,78.755 31.514,76.096 31.506,75.161Z" style="fill:rgb(234,62,0);"/>
        <path d="M89.941,79.227C89.842,76.689 99.326,77.956 101.459,65.648C102.29,60.854 107.626,64.839 110.021,66.45C112.415,68.063 118.646,73.954 119.81,80.378C120.973,86.802 119.379,96.354 116.925,98.269C114.471,100.184 116.511,83.28 99.796,81.538C99.796,81.538 94.662,83.173 93.127,82.998C91.592,82.823 89.986,80.367 89.941,79.227Z" style="fill:rgb(234,62,0);"/>
        <path d="M52.607,86.205C53.278,83.295 48.075,81.853 41.986,66.073C40.15,61.316 36.452,64.806 33.735,66.543C31.018,68.28 24.412,74.029 21.659,80.564C18.906,87.099 16.997,99.114 19.412,101.864C21.827,104.614 23.018,84.877 42.473,83.77C42.473,83.77 48.383,87.862 50.194,87.996C52.005,88.13 52.305,87.513 52.607,86.205Z" style="fill:rgb(254,91,32);"/>
        <path d="M83.862,94.136C83.862,94.136 77.564,89.928 78.122,84.182C78.68,78.436 82.939,75.877 84.522,75.72C86.104,75.563 93.675,75.966 95.388,84.313C97.101,92.66 92.142,96.963 92.142,96.963C92.142,96.963 89.929,88.222 86.107,86.559C84.398,87.178 83.862,94.136 83.862,94.136Z" style="fill:rgb(254,91,32);"/>
        <path d="M66.366,95.436C66.366,95.436 69.318,88.459 65.695,83.964C62.073,79.469 57.108,79.671 55.7,80.409C54.291,81.147 48.186,85.641 51.339,93.557C54.492,101.474 60.999,102.346 60.999,102.346C60.999,102.346 58.048,93.826 60.328,90.337C62.609,90.639 66.366,95.436 66.366,95.436Z" style="fill:rgb(254,91,32);"/>
    </g>
</svg>
